HIERARCHY
ROOT root
{
  OFFSET 0 98.6856 0
  CHANNELS 6 Xposition Yposition Zposition Zrotation Xrotation Yrotation
  JOINT torso_1
  {
    OFFSET 0 5.37224 -1.21793
    CHANNELS 6 Xposition Yposition Zposition Zrotation Xrotation Yrotation
    JOINT torso_2
    {
      OFFSET 0 5.94127 1.13336
      CHANNELS 6 Xposition Yposition Zposition Zrotation Xrotation Yrotation
      JOINT torso_3
      {
        OFFSET -1.08535e-17 6.33601 0.121658
        CHANNELS 6 Xposition Yposition Zposition Zrotation Xrotation Yrotation
        JOINT torso_4
        {
          OFFSET -1.16841e-17 6.88189 -0.46916
          CHANNELS 6 Xposition Yposition Zposition Zrotation Xrotation Yrotation
          JOINT torso_5
          {
            OFFSET -2.08699e-17 8.0451 -1.59297
            CHANNELS 6 Xposition Yposition Zposition Zrotation Xrotation Yrotation
            JOINT torso_6
            {
              OFFSET -2.67949e-17 10.0463 -0.967353
              CHANNELS 6 Xposition Yposition Zposition Zrotation Xrotation Yrotation
              JOINT torso_7
              {
                OFFSET -3.07187e-17 11.1612 1.66806
                CHANNELS 6 Xposition Yposition Zposition Zrotation Xrotation Yrotation
                JOINT neck_1
                {
                  OFFSET -1.36661e-17 5.06312 0.756688
                  CHANNELS 6 Xposition Yposition Zposition Zrotation Xrotation Yrotation
                  JOINT neck_2
                  {
                    OFFSET -1.91632e-17 5.09976 0.446172
                    CHANNELS 6 Xposition Yposition Zposition Zrotation Xrotation Yrotation
                    JOINT head
                    {
                      OFFSET -2.12574e-17 5.10962 0.809285
                      CHANNELS 6 Xposition Yposition Zposition Zrotation Xrotation Yrotation
                      End Site
                      {
                        OFFSET 0 0.1 0
                      }
                    }
                  }
                }
                JOINT l_shoulder
                {
                  OFFSET 1.30426 -8.04703 7.96922
                  CHANNELS 6 Xposition Yposition Zposition Zrotation Xrotation Yrotation
                  JOINT l_up_arm
                  {
                    OFFSET 13.7035 3.43734 -3.45766
                    CHANNELS 6 Xposition Yposition Zposition Zrotation Xrotation Yrotation
                    JOINT l_low_arm
                    {
                      OFFSET 30.8964 0.0632652 0.14496
                      CHANNELS 6 Xposition Yposition Zposition Zrotation Xrotation Yrotation
                      JOINT l_hand
                      {
                        OFFSET 25.6348 0.0524902 0.120274
                        CHANNELS 6 Xposition Yposition Zposition Zrotation Xrotation Yrotation
                        End Site
                        {
                          OFFSET 0.1 0 0
                        }
                      }
                    }
                  }
                }
                JOINT r_shoulder
                {
                  OFFSET -1.30426 -8.04702 7.96912
                  CHANNELS 6 Xposition Yposition Zposition Zrotation Xrotation Yrotation
                  JOINT r_up_arm
                  {
                    OFFSET -13.7035 3.43734 -3.45766
                    CHANNELS 6 Xposition Yposition Zposition Zrotation Xrotation Yrotation
                    JOINT r_low_arm
                    {
                      OFFSET -30.8964 0.0632652 0.14496
                      CHANNELS 6 Xposition Yposition Zposition Zrotation Xrotation Yrotation
                      JOINT r_hand
                      {
                        OFFSET -25.6348 0.0524901 0.120274
                        CHANNELS 6 Xposition Yposition Zposition Zrotation Xrotation Yrotation
                        End Site
                        {
                          OFFSET -0.1 0 0
                        }
                      }
                    }
                  }
                }
              }
            }
          }
        }
      }
    }
  }
  JOINT l_up_leg
  {
    OFFSET 9.77065 -4.44866 2.1502
    CHANNELS 6 Xposition Yposition Zposition Zrotation Xrotation Yrotation
    JOINT l_low_leg
    {
      OFFSET -0.901622 -41.0132 -0.693059
      CHANNELS 6 Xposition Yposition Zposition Zrotation Xrotation Yrotation
      JOINT l_foot
      {
        OFFSET -2.46068 -42.7371 -6.39839
        CHANNELS 6 Xposition Yposition Zposition Zrotation Xrotation Yrotation
        JOINT l_toes
        {
          OFFSET 0.82413 -10.4558 13.2182
          CHANNELS 6 Xposition Yposition Zposition Zrotation Xrotation Yrotation
          End Site
          {
            OFFSET 0 0 0.1
          }
        }
      }
    }
  }
  JOINT r_up_leg
  {
    OFFSET -9.77065 -4.44866 2.1502
    CHANNELS 6 Xposition Yposition Zposition Zrotation Xrotation Yrotation
    JOINT r_low_leg
    {
      OFFSET 0.901622 -41.0132 -0.693059
      CHANNELS 6 Xposition Yposition Zposition Zrotation Xrotation Yrotation
      JOINT r_foot
      {
        OFFSET 2.46068 -42.7371 -6.39839
        CHANNELS 6 Xposition Yposition Zposition Zrotation Xrotation Yrotation
        JOINT r_toes
        {
          OFFSET -0.82413 -10.4558 13.2182
          CHANNELS 6 Xposition Yposition Zposition Zrotation Xrotation Yrotation
          End Site
          {
            OFFSET 0 0 0.1
          }
        }
      }
    }
  }
}
MOTION
Frames: 8
Frame Time: 0.02
23.8045 93.261 333.795 -5.45251 8.05996 173.643 0 5.37224 -1.21793 -1.86119 2.07386 2.20239 0 5.94127 1.13336 -1.97418 2.40028 1.87728 -1.08535e-17 6.33601 0.121658 -1.75887 3.221 1.82045 -1.16841e-17 6.88189 -0.46916 -1.57194 4.6772 1.80741 -2.08699e-17 8.0451 -1.59297 -0.997415 4.80518 2.06483 -2.67949e-17 10.0463 -0.967353 -0.00901742 5.10552 1.96991 -3.07187e-17 11.1612 1.66806 0.00708309 0.0919432 -0.0185074 -1.36661e-17 5.06312 0.756688 -0.317453 5.84526 2.02179 -1.91632e-17 5.09976 0.446172 -1.44869 -0.436647 0.7969 -2.12574e-17 5.10962 0.809285 -0.94232 1.56738 -0.422298 1.30426 -8.04703 7.96922 -5.4537 2.24024 -3.68522 13.7035 3.43734 -3.45766 -68.486 20.0023 -9.49091 30.8964 0.0632652 0.14496 2.96502 -0.359801 -14.4309 25.6348 0.0524902 0.120274 -3.09993 -30.117 -6.31563 -1.30426 -8.04702 7.96912 1.79408 0.0558958 1.90791 -13.7035 3.43734 -3.45766 73.4531 15.7461 9.43891 -30.8964 0.0632652 0.14496 -8.94381 -3.97043 48.3992 -25.6348 0.0524901 0.120274 -2.71659 -17.8024 3.19968 9.77065 -4.44866 2.1502 -8.00091 -22.3088 -18.6198 -0.901622 -41.0132 -0.693059 -5.87041 21.1412 0.722536 -2.46068 -42.7371 -6.39839 -2.65499 3.47448 15.1886 0.82413 -10.4558 13.2182 2.03754e-15 -7.0817e-16 -7.45443e-17 -9.77065 -4.44866 2.1502 -4.07498 12.8802 17.3936 0.901622 -41.0132 -0.693059 8.35948 28.9192 -1.64146 2.46068 -42.7371 -6.39839 6.60674 1.64088 -16.0122 -0.82413 -10.4558 13.2182 9.93923e-16 -6.33626e-16 -1.28092e-14 
23.4473 93.1214 330.638 -6.01874 8.4193 172.843 0 5.37224 -1.21793 -2.31739 2.40189 2.19289 0 5.94127 1.13336 -2.34415 2.66071 1.79153 -1.08535e-17 6.33601 0.121658 -2.02332 3.34633 1.7298 -1.16841e-17 6.88189 -0.46916 -1.7301 4.61601 1.70974 -2.08699e-17 8.0451 -1.59297 -1.06901 4.57866 1.98627 -2.67949e-17 10.0463 -0.967353 0.00335944 4.78181 1.89685 -3.07187e-17 11.1612 1.66806 0.0063734 0.0900851 -0.0153677 -1.36661e-17 5.06312 0.756688 -0.389163 6.39438 2.50294 -1.91632e-17 5.09976 0.446172 -1.70539 -0.113131 0.975499 -2.12574e-17 5.10962 0.809285 -1.52892 1.72912 -0.297052 1.30426 -8.04703 7.96922 -4.58367 2.23976 -3.39298 13.7035 3.43734 -3.45766 -69.4475 20.4604 -9.47809 30.8964 0.0632652 0.14496 2.87064 -0.336447 -13.9628 25.6348 0.0524902 0.120274 -2.83441 -30.1298 -6.67411 -1.30426 -8.04702 7.96912 2.0974 0.319592 2.21911 -13.7035 3.43734 -3.45766 74.6731 15.8969 8.63843 -30.8964 0.0632652 0.14496 -8.64615 -3.65124 46.317 -25.6348 0.0524901 0.120274 -2.18004 -17.9748 3.29712 9.77065 -4.44866 2.1502 -8.8804 -21.2401 -17.7436 -0.901622 -41.0132 -0.693059 -6.45156 23.042 0.907819 -2.46068 -42.7371 -6.39839 -0.783322 3.16731 14.9368 0.82413 -10.4558 13.2182 -3.47873e-16 -8.07563e-16 2.48481e-17 -9.77065 -4.44866 2.1502 -6.07448 11.5568 16.669 0.901622 -41.0132 -0.693059 9.84979 33.1006 -2.33604 2.46068 -42.7371 -6.39839 9.29785 6.07166 -16.2973 -0.82413 -10.4558 13.2182 1.98785e-16 -5.96354e-16 -1.27719e-14 
22.9887 93.1076 327.523 -6.49672 8.91308 171.781 0 5.37224 -1.21793 -2.7004 2.6205 2.20071 0 5.94127 1.13336 -2.65984 2.83204 1.73631 -1.08535e-17 6.33601 0.121658 -2.24778 3.41837 1.6724 -1.16841e-17 6.88189 -0.46916 -1.86687 4.5393 1.65245 -2.08699e-17 8.0451 -1.59297 -1.12545 4.38691 1.9494 -2.67949e-17 10.0463 -0.967353 0.0175083 4.52177 1.86045 -3.07187e-17 11.1612 1.66806 0.00498184 0.090761 -0.0114519 -1.36661e-17 5.06312 0.756688 -0.472759 6.90275 3.17551 -1.91632e-17 5.09976 0.446172 -1.95316 0.244995 1.25257 -2.12574e-17 5.10962 0.809285 -2.33906 2.17335 -0.167405 1.30426 -8.04703 7.96922 -3.62259 2.14435 -3.01657 13.7035 3.43734 -3.45766 -70.6394 20.5106 -9.54054 30.8964 0.0632652 0.14496 2.87347 -0.337134 -13.9768 25.6348 0.0524902 0.120274 -2.49104 -29.4004 -6.56541 -1.30426 -8.04702 7.96912 2.63126 0.702069 2.39211 -13.7035 3.43734 -3.45766 75.0772 16.7727 8.53153 -30.8964 0.0632652 0.14496 -8.14597 -3.16309 42.98 -25.6348 0.0524901 0.120274 -1.7801 -18.2273 3.33412 9.77065 -4.44866 2.1502 -9.20953 -19.7897 -15.1796 -0.901622 -41.0132 -0.693059 -6.9014 24.479 1.06387 -2.46068 -42.7371 -6.39839 1.21874 1.81809 14.674 0.82413 -10.4558 13.2182 -1.14301e-15 -8.44835e-16 6.21202e-17 -9.77065 -4.44866 2.1502 -7.5664 9.17417 17.1931 0.901622 -41.0132 -0.693059 12.1833 38.9225 -3.60666 2.46068 -42.7371 -6.39839 10.4166 7.54806 -16.2861 -0.82413 -10.4558 13.2182 -2.5842e-15 -4.84538e-16 -1.26601e-14 
22.6195 93.237 324.373 -7.11531 10.3719 170.847 0 5.37224 -1.21793 -3.08895 2.83327 2.27561 0 5.94127 1.13336 -2.97914 3.04807 1.73257 -1.08535e-17 6.33601 0.121658 -2.48571 3.59806 1.66627 -1.16841e-17 6.88189 -0.46916 -2.02951 4.67689 1.64648 -2.08699e-17 8.0451 -1.59297 -1.21894 4.46798 1.98205 -2.67949e-17 10.0463 -0.967353 0.00616737 4.55011 1.8977 -3.07187e-17 11.1612 1.66806 0.00425634 0.0907955 -0.00792368 -1.36661e-17 5.06312 0.756688 -0.605462 7.42105 3.85074 -1.91632e-17 5.09976 0.446172 -2.24764 0.604302 1.54266 -2.12574e-17 5.10962 0.809285 -2.6297 2.71623 -0.258996 1.30426 -8.04703 7.96922 -2.63502 1.93622 -2.70572 13.7035 3.43734 -3.45766 -71.768 20.6965 -10.1085 30.8964 0.0632652 0.14496 2.88576 -0.340131 -14.0377 25.6348 0.0524902 0.120274 -2.16035 -28.4697 -6.33601 -1.30426 -8.04702 7.96912 3.16246 1.02625 2.46398 -13.7035 3.43734 -3.45766 75.4091 17.7282 8.9947 -30.8964 0.0632652 0.14496 -7.42085 -2.54655 38.4297 -25.6348 0.0524901 0.120274 -1.57845 -17.9403 3.46796 9.77065 -4.44866 2.1502 -9.90524 -16.5779 -13.2187 -0.901622 -41.0132 -0.693059 -6.84685 24.3064 1.04437 -2.46068 -42.7371 -6.39839 2.56575 0.846672 14.4869 0.82413 -10.4558 13.2182 2.03754e-15 -7.0817e-16 -7.45443e-17 -9.77065 -4.44866 2.1502 -8.11431 6.84409 19.1559 0.901622 -41.0132 -0.693059 15.142 45.1184 -5.47941 2.46068 -42.7371 -6.39839 10.9849 8.35196 -16.1801 -0.82413 -10.4558 13.2182 9.93923e-16 -6.33626e-16 -1.28092e-14 
22.2939 93.4601 321.324 -7.61973 11.1831 170.31 0 5.37224 -1.21793 -3.35008 2.99218 2.26938 0 5.94127 1.13336 -3.17996 3.22667 1.67336 -1.08535e-17 6.33601 0.121658 -2.63309 3.7792 1.60262 -1.16841e-17 6.88189 -0.46916 -2.12423 4.85778 1.5799 -2.08699e-17 8.0451 -1.59297 -1.28926 4.632 1.93827 -2.67949e-17 10.0463 -0.967353 -0.0337651 4.69394 1.86786 -3.07187e-17 11.1612 1.66806 0.0033228 0.0895313 -0.00470363 -1.36661e-17 5.06312 0.756688 -0.722271 7.85146 4.11616 -1.91632e-17 5.09976 0.446172 -2.52479 0.807192 1.63461 -2.12574e-17 5.10962 0.809285 -2.8179 2.65375 0.0338425 1.30426 -8.04703 7.96922 -1.68104 1.61757 -2.4441 13.7035 3.43734 -3.45766 -72.6848 21.7029 -10.697 30.8964 0.0632652 0.14496 2.97154 -0.361441 -14.4632 25.6348 0.0524902 0.120274 -2.00102 -28.589 -6.92756 -1.30426 -8.04702 7.96912 3.51469 1.20105 2.46786 -13.7035 3.43734 -3.45766 75.2786 18.9749 9.81913 -30.8964 0.0632652 0.14496 -6.55484 -1.92735 33.3321 -25.6348 0.0524901 0.120274 -1.43771 -17.5593 4.05637 9.77065 -4.44866 2.1502 -10.6516 -13.8951 -12.019 -0.901622 -41.0132 -0.693059 -6.69559 23.8254 0.991132 -2.46068 -42.7371 -6.39839 3.26621 -0.271832 14.4717 0.82413 -10.4558 13.2182 2.83268e-15 -6.70898e-16 -1.11816e-16 -9.77065 -4.44866 2.1502 -8.36845 3.82038 20.1331 0.901622 -41.0132 -0.693059 18.4726 50.7392 -7.85301 2.46068 -42.7371 -6.39839 10.574 6.92774 -15.9972 -0.82413 -10.4558 13.2182 9.93923e-16 -6.33626e-16 -1.28092e-14 
22.0912 93.6884 318.472 -7.93077 10.2723 170.175 0 5.37224 -1.21793 -3.45994 2.72741 2.1242 0 5.94127 1.13336 -3.24822 3.03469 1.5352 -1.08535e-17 6.33601 0.121658 -2.6725 3.67556 1.4619 -1.16841e-17 6.88189 -0.46916 -2.13111 4.85637 1.43317 -2.08699e-17 8.0451 -1.59297 -1.30286 4.7131 1.78389 -2.67949e-17 10.0463 -0.967353 -0.0706682 4.82284 1.73846 -3.07187e-17 11.1612 1.66806 0.00317495 0.086794 -0.00062782 -1.36661e-17 5.06312 0.756688 -0.79857 8.25276 4.42361 -1.91632e-17 5.09976 0.446172 -2.67799 1.05638 1.75734 -2.12574e-17 5.10962 0.809285 -3.02265 2.1817 0.162659 1.30426 -8.04703 7.96922 -0.840995 1.23086 -2.15071 13.7035 3.43734 -3.45766 -73.689 22.6079 -10.8134 30.8964 0.0632652 0.14496 3.25354 -0.436304 -15.8677 25.6348 0.0524902 0.120274 -1.78554 -28.7499 -7.38598 -1.30426 -8.04702 7.96912 3.96424 1.32444 2.36006 -13.7035 3.43734 -3.45766 75.0107 20.2985 10.2689 -30.8964 0.0632652 0.14496 -5.76953 -1.4586 28.9466 -25.6348 0.0524901 0.120274 -1.29692 -16.897 4.27606 9.77065 -4.44866 2.1502 -11.1144 -12.905 -11.6183 -0.901622 -41.0132 -0.693059 -6.56564 23.4093 0.946366 -2.46068 -42.7371 -6.39839 3.82999 -1.72186 14.5748 0.82413 -10.4558 13.2182 4.47266e-16 -7.82715e-16 3.05504e-33 -9.77065 -4.44866 2.1502 -8.75416 -1.12801 19.1224 0.901622 -41.0132 -0.693059 22.3311 55.8379 -10.8552 2.46068 -42.7371 -6.39839 9.20426 4.55493 -15.76 -0.82413 -10.4558 13.2182 -1.98785e-16 -5.8393e-16 -1.27595e-14 
22.0099 94.0817 315.833 -8.05798 8.936 170.31 0 5.37224 -1.21793 -3.48831 2.21619 1.93638 0 5.94127 1.13336 -3.24838 2.61984 1.38207 -1.08535e-17 6.33601 0.121658 -2.65658 3.38865 1.31356 -1.16841e-17 6.88189 -0.46916 -2.09537 4.72674 1.28225 -2.08699e-17 8.0451 -1.59297 -1.27711 4.71996 1.61838 -2.67949e-17 10.0463 -0.967353 -0.0795798 4.89989 1.59475 -3.07187e-17 11.1612 1.66806 0.00439738 0.0858416 0.00385114 -1.36661e-17 5.06312 0.756688 -0.824117 8.16411 4.7293 -1.91632e-17 5.09976 0.446172 -2.6564 1.3257 1.90069 -2.12574e-17 5.10962 0.809285 -3.20776 2.60686 0.189301 1.30426 -8.04703 7.96922 -0.532971 1.03487 -2.06717 13.7035 3.43734 -3.45766 -74.0179 23.022 -11.1497 30.8964 0.0632652 0.14496 3.56811 -0.528643 -17.4455 25.6348 0.0524902 0.120274 -1.70548 -28.5842 -7.16741 -1.30426 -8.04702 7.96912 4.91531 1.69632 2.49229 -13.7035 3.43734 -3.45766 74.6019 20.8901 10.2857 -30.8964 0.0632652 0.14496 -5.04508 -1.09425 25.0535 -25.6348 0.0524901 0.120274 -1.21753 -16.1384 3.94362 9.77065 -4.44866 2.1502 -11.3813 -11.962 -11.7326 -0.901622 -41.0132 -0.693059 -6.22002 22.2906 0.831761 -2.46068 -42.7371 -6.39839 4.4315 -2.70197 14.6194 0.82413 -10.4558 13.2182 2.03754e-15 -7.0817e-16 -7.45443e-17 -9.77065 -4.44866 2.1502 -9.02006 -6.58837 17.6578 0.901622 -41.0132 -0.693059 26.0001 59.6232 -13.8877 2.46068 -42.7371 -6.39839 8.04334 3.65964 -15.5459 -0.82413 -10.4558 13.2182 5.96354e-16 -6.21202e-16 -1.27968e-14 
22.006 94.552 313.354 -7.96006 8.05642 170.71 0 5.37224 -1.21793 -3.41787 1.68745 1.74501 0 5.94127 1.13336 -3.15975 2.21363 1.23052 -1.08535e-17 6.33601 0.121658 -2.57674 3.14958 1.16967 -1.16841e-17 6.88189 -0.46916 -2.01787 4.71008 1.13812 -2.08699e-17 8.0451 -1.59297 -1.23273 4.88583 1.46233 -2.67949e-17 10.0463 -0.967353 -0.0892567 5.15285 1.45986 -3.07187e-17 11.1612 1.66806 0.00644298 0.0838499 0.00809192 -1.36661e-17 5.06312 0.756688 -0.852331 7.87798 5.03183 -1.91632e-17 5.09976 0.446172 -2.76178 1.45212 2.04461 -2.12574e-17 5.10962 0.809285 -3.25091 3.31592 0.0368095 1.30426 -8.04703 7.96922 -0.450827 0.810646 -2.06555 13.7035 3.43734 -3.45766 -73.7436 23.8943 -12.1133 30.8964 0.0632652 0.14496 3.81759 -0.608633 -18.7059 25.6348 0.0524902 0.120274 -1.561 -28.7383 -6.70467 -1.30426 -8.04702 7.96912 6.00462 2.06141 2.74801 -13.7035 3.43734 -3.45766 74.0733 20.6671 10.2218 -30.8964 0.0632652 0.14496 -4.29028 -0.777151 21.1186 -25.6348 0.0524901 0.120274 -1.05188 -15.6273 3.70929 9.77065 -4.44866 2.1502 -11.4798 -10.3054 -12.1588 -0.901622 -41.0132 -0.693059 -5.73207 20.6815 0.681208 -2.46068 -42.7371 -6.39839 4.79921 -3.28004 14.6383 0.82413 -10.4558 13.2182 2.43511e-15 -6.95746e-16 -8.69683e-17 -9.77065 -4.44866 2.1502 -8.87365 -11.2389 16.5359 0.901622 -41.0132 -0.693059 28.6406 61.8573 -16.1483 2.46068 -42.7371 -6.39839 6.99156 3.25219 -15.392 -0.82413 -10.4558 13.2182 1.98785e-16 -5.96354e-16 -1.27719e-14 
